<?xml version="1.0" standalone="no"?>
<!DOCTYPE svg PUBLIC "-//W3C//DTD SVG 20010904//EN"
 "http://www.w3.org/TR/2001/REC-SVG-20010904/DTD/svg10.dtd">
<svg version="1.0" xmlns="http://www.w3.org/2000/svg"
 width="512.000000pt" height="512.000000pt" viewBox="0 0 512.000000 512.000000"
 preserveAspectRatio="xMidYMid meet">

<g transform="translate(0.000000,512.000000) scale(0.100000,-0.100000)"
fill="#06B5D5" stroke="none">
<path d="M2487 5099 c-247 -58 -333 -360 -154 -540 63 -63 135 -92 227 -93 66
-1 84 3 142 32 62 30 102 65 138 120 l15 23 50 -32 c28 -18 91 -74 140 -123
325 -325 554 -956 614 -1689 14 -165 14 -569 0 -734 -21 -261 -64 -515 -125
-738 -20 -71 -36 -140 -36 -153 -1 -48 55 -77 102 -52 47 25 142 441 187 815
25 213 25 777 0 990 -72 605 -221 1067 -466 1440 -81 124 -276 323 -367 375
-60 34 -62 36 -68 84 -22 186 -214 319 -399 275z"/>
<path d="M1127 4045 c-135 -22 -232 -52 -342 -105 -211 -102 -345 -259 -401
-470 -28 -107 -24 -289 10 -423 42 -167 148 -408 195 -444 39 -30 101 2 101
52 0 14 -22 69 -49 123 -319 635 -82 1078 610 1142 142 13 304 7 488 -20 136
-20 167 -15 177 27 8 32 -3 71 -24 82 -75 40 -590 64 -765 36z"/>
<path d="M3701 4041 c-29 -29 -28 -74 3 -99 20 -15 48 -20 138 -25 261 -13
465 -87 604 -220 186 -176 224 -428 112 -745 -58 -164 -136 -303 -277 -491
-121 -160 -122 -163 -116 -191 8 -33 32 -50 71 -50 29 0 41 10 110 98 194 246
316 473 380 708 24 86 27 118 27 249 1 136 -2 157 -26 230 -46 141 -130 259
-245 346 -158 120 -379 190 -647 205 -106 7 -113 6 -134 -15z"/>
<path d="M3025 3964 c-622 -164 -1244 -490 -1760 -923 -133 -111 -369 -351
-469 -476 -278 -349 -425 -679 -427 -964 l-1 -86 -39 -29 c-154 -110 -171
-354 -34 -492 120 -120 320 -126 447 -15 71 63 101 130 106 233 4 76 1 93 -21
141 -52 114 -149 185 -263 195 l-64 5 0 37 c0 63 29 210 60 302 248 741 1314
1595 2380 1906 74 22 162 45 194 52 64 13 106 45 106 80 0 26 -43 70 -67 69
-10 0 -76 -16 -148 -35z"/>
<path d="M2490 2655 c-174 -56 -221 -290 -82 -405 102 -85 247 -72 334 30 152
177 -29 447 -252 375z"/>
<path d="M929 2265 c-35 -19 -45 -59 -23 -94 24 -38 249 -257 361 -351 436
-365 942 -652 1470 -833 638 -219 1227 -242 1597 -63 l67 33 52 -26 c44 -22
65 -26 142 -26 79 0 97 4 142 28 187 98 241 334 113 496 -66 84 -147 121 -263
122 -176 1 -319 -145 -319 -326 0 -51 6 -86 20 -118 l20 -46 -73 -30 c-668
-278 -1941 112 -2860 878 -49 41 -155 139 -235 217 -80 78 -154 144 -165 147
-11 4 -32 0 -46 -8z"/>
<path d="M1570 1117 c-45 -23 -46 -52 -5 -157 166 -426 414 -748 680 -882 137
-70 301 -93 445 -64 90 19 217 73 297 127 146 99 396 399 396 475 0 51 -65 83
-105 52 -8 -7 -44 -56 -79 -108 -74 -110 -217 -259 -303 -315 -144 -94 -321
-128 -466 -90 -280 72 -545 374 -725 827 -42 105 -71 148 -99 148 -6 0 -22 -6
-36 -13z"/>
</g>
</svg>
