<?xml version="1.0" encoding="UTF-8"?>
<svg version="1.1" xmlns="http://www.w3.org/2000/svg" width="512" height="512">
<path d="M0 0 C0.70302246 0.00427002 1.40604492 0.00854004 2.13037109 0.01293945 C8.39756828 0.21647592 13.07703697 1.90270962 18.25 5.5 C18.81976563 5.89574219 19.38953125 6.29148437 19.9765625 6.69921875 C23.38609609 9.33067929 26.0853689 12.52934031 28.828125 15.81640625 C32.09717231 19.68717381 35.81182103 22.99613115 39.625 26.3125 C43.30523725 29.55257598 46.53781815 32.96826792 49.7109375 36.69921875 C53.05938371 40.61707079 56.8108117 43.9966506 60.6875 47.375 C64.07864456 50.36123178 67.0587787 53.44389711 69.93359375 56.921875 C73.14534106 60.77215961 76.85266917 64.03165728 80.625 67.3125 C84.30523725 70.55257598 87.53781815 73.96826792 90.7109375 77.69921875 C94.05938371 81.61707079 97.8108117 84.9966506 101.6875 88.375 C105.07864456 91.36123178 108.0587787 94.44389711 110.93359375 97.921875 C114.14534106 101.77215961 117.85266917 105.03165728 121.625 108.3125 C125.30523725 111.55257598 128.53781815 114.96826792 131.7109375 118.69921875 C135.05938371 122.61707079 138.8108117 125.9966506 142.6875 129.375 C146.07864456 132.36123178 149.0587787 135.44389711 151.93359375 138.921875 C155.14534106 142.77215961 158.85266917 146.03165728 162.625 149.3125 C166.30523725 152.55257598 169.53781815 155.96826792 172.7109375 159.69921875 C176.05938371 163.61707079 179.8108117 166.9966506 183.6875 170.375 C187.07864456 173.36123178 190.0587787 176.44389711 192.93359375 179.921875 C196.14534106 183.77215961 199.85266917 187.03165728 203.625 190.3125 C207.30048092 193.54838851 210.53220691 196.95590999 213.6953125 200.6875 C215.75625715 203.09020934 217.98287666 205.2925378 220.25 207.5 C221.075 208.44875 221.9 209.3975 222.75 210.375 C225.01558722 212.79615399 225.01558722 212.79615399 227.69921875 212.359375 C230.69094341 211.35144326 231.6423847 210.34303902 233.5625 207.875 C236.58035104 204.19966508 239.80121023 201.1541407 243.4140625 198.07421875 C247.33956352 194.70831043 250.73509149 190.95245248 254.125 187.0625 C257.11123178 183.67135544 260.19389711 180.6912213 263.671875 177.81640625 C267.52215961 174.60465894 270.78165728 170.89733083 274.0625 167.125 C277.30257598 163.44476275 280.71826792 160.21218185 284.44921875 157.0390625 C288.36707079 153.69061629 291.7466506 149.9391883 295.125 146.0625 C298.11123178 142.67135544 301.19389711 139.6912213 304.671875 136.81640625 C308.52215961 133.60465894 311.78165728 129.89733083 315.0625 126.125 C318.30257598 122.44476275 321.71826792 119.21218185 325.44921875 116.0390625 C329.36707079 112.69061629 332.7466506 108.9391883 336.125 105.0625 C339.11123178 101.67135544 342.19389711 98.6912213 345.671875 95.81640625 C349.52215961 92.60465894 352.78165728 88.89733083 356.0625 85.125 C359.30257598 81.44476275 362.71826792 78.21218185 366.44921875 75.0390625 C370.36707079 71.69061629 373.7466506 67.9391883 377.125 64.0625 C380.11123178 60.67135544 383.19389711 57.6912213 386.671875 54.81640625 C390.52215961 51.60465894 393.78165728 47.89733083 397.0625 44.125 C400.30257598 40.44476275 403.71826792 37.21218185 407.44921875 34.0390625 C411.36707079 30.69061629 414.7466506 26.9391883 418.125 23.0625 C421.10846241 19.67450032 424.18025085 16.68991296 427.66796875 13.83203125 C429.46572315 12.36242106 429.46572315 12.36242106 431.75 9.9375 C439.37820513 2.5 439.37820513 2.5 445.25 2.5 C445.25 1.84 445.25 1.18 445.25 0.5 C455.78712322 -0.1670629 464.66818404 -0.62727089 473.25 6.5 C475.9249239 9.31311185 478.15954804 12.23366881 480.25 15.5 C480.76674679 16.20744189 481.28349359 16.91488378 481.81589937 17.6437633 C483.64340162 21.28352112 483.66780773 24.46650259 483.63311005 28.44588089 C483.63806956 29.24417775 483.64302908 30.04247461 483.64813888 30.86496228 C483.66113364 33.5506993 483.65269806 36.2359423 483.64440918 38.92169189 C483.64929626 40.86237751 483.65548521 42.80306021 483.66286707 44.74373794 C483.6793132 50.08525045 483.67693914 55.42661582 483.6714921 60.76814485 C483.66882762 66.52562933 483.68334283 72.28307408 483.69558716 78.0405426 C483.71666875 89.32397619 483.72118042 100.60735843 483.71939927 111.89080939 C483.71809289 121.06110086 483.72188944 130.23137628 483.72932434 139.40166473 C483.73142349 142.0407536 483.73352109 144.67984247 483.73561716 147.31893134 C483.73718245 149.28912386 483.73718245 149.28912386 483.73877937 151.29911825 C483.75231803 169.09163616 483.75990351 186.88414716 483.75545502 204.67667007 C483.75528306 205.37264021 483.75511111 206.06861035 483.75493394 206.78567049 C483.75404504 210.31317941 483.75310023 213.84068833 483.75213593 217.36819723 C483.7519449 218.06877934 483.75175387 218.76936145 483.75155704 219.49117332 C483.75116995 220.90792173 483.75077962 222.32467014 483.75038607 223.74141855 C483.74441715 245.78191959 483.75984823 267.82231561 483.79199219 289.86279297 C483.82807128 314.62255341 483.84735766 339.38224472 483.84245348 364.14203334 C483.84020723 377.25272256 483.8454746 390.36330769 483.87034607 403.47397614 C483.89134147 414.6367107 483.89496869 425.79928411 483.87604648 436.96202525 C483.86687748 442.65833244 483.8657815 448.35433902 483.88640213 454.05062294 C483.90507161 459.26557573 483.90065349 464.47998085 483.87785631 469.69491252 C483.87366038 471.58118337 483.87790383 473.46749587 483.89145225 475.35372272 C484.01110564 493.22991292 484.01110564 493.22991292 478.25 500.5 C477.54875 501.551875 476.8475 502.60375 476.125 503.6875 C471.1925635 509.08897188 465.09776684 512.5054201 457.75390625 512.875 C453.57305973 512.93502464 449.42198519 512.76411161 445.25 512.5 C445.25 511.84 445.25 511.18 445.25 510.5 C444.445625 510.479375 443.64125 510.45875 442.8125 510.4375 C435.49904674 508.51290704 430.23184049 502.84655331 425.56640625 497.11328125 C422.39111182 493.22189669 418.65213324 489.97251943 414.875 486.6875 C411.19476275 483.44742402 407.96218185 480.03173208 404.7890625 476.30078125 C401.44061629 472.38292921 397.6891883 469.0033494 393.8125 465.625 C390.42135544 462.63876822 387.4412213 459.55610289 384.56640625 456.078125 C381.35465894 452.22784039 377.64733083 448.96834272 373.875 445.6875 C370.19476275 442.44742402 366.96218185 439.03173208 363.7890625 435.30078125 C360.44061629 431.38292921 356.6891883 428.0033494 352.8125 424.625 C348.88858049 421.17352565 345.54294602 417.55285664 342.25 413.5 C337.35473556 414.68673077 335.22294733 417.64160256 332.14453125 421.34375 C329.67621821 424.15304649 326.92684979 426.50393074 324.0859375 428.92578125 C320.16043648 432.29168957 316.76490851 436.04754752 313.375 439.9375 C310.38876822 443.32864456 307.30610289 446.3087787 303.828125 449.18359375 C299.97784039 452.39534106 296.71834272 456.10266917 293.4375 459.875 C290.19742402 463.55523725 286.78173208 466.78781815 283.05078125 469.9609375 C279.13292921 473.30938371 275.7533494 477.0608117 272.375 480.9375 C269.38876822 484.32864456 266.30610289 487.3087787 262.828125 490.18359375 C259.75936444 492.7434262 257.02799515 495.56056657 254.48046875 498.63671875 C250.07206448 503.89724061 245.7809904 508.05701675 239.25 510.5 C237.93 510.5 236.61 510.5 235.25 510.5 C235.25 511.16 235.25 511.82 235.25 512.5 C229.97 512.5 224.69 512.5 219.25 512.5 C219.25 511.84 219.25 511.18 219.25 510.5 C218.445625 510.45875 217.64125 510.4175 216.8125 510.375 C208.65855558 508.37227681 203.33092391 502.86246258 198.25 496.5 C195.25694021 493.3451532 192.08798257 490.47872311 188.8125 487.625 C185.42135544 484.63876822 182.4412213 481.55610289 179.56640625 478.078125 C176.35465894 474.22784039 172.64733083 470.96834272 168.875 467.6875 C165.19476275 464.44742402 161.96218185 461.03173208 158.7890625 457.30078125 C155.44061629 453.38292921 151.6891883 450.0033494 147.8125 446.625 C144.41992958 443.63751262 141.43929005 440.55294585 138.5625 437.07421875 C135.18757109 433.02631294 131.24864217 429.60810338 127.3125 426.125 C124.24412641 423.39856998 121.45550158 420.69115462 118.875 417.5 C116.27193222 414.5250654 115.84248942 414.11148756 112.25 413.5 C111.52296875 414.35271484 111.52296875 414.35271484 110.78125 415.22265625 C106.78468107 419.82639623 102.6979184 424.00938164 98.0546875 427.95703125 C94.33379332 431.13831524 91.10524982 434.65788817 87.9375 438.375 C84.89640433 441.89313029 81.62040594 444.91268076 78.0859375 447.92578125 C74.18229291 451.27294885 70.80508583 455.00391104 67.4375 458.875 C64.19865883 462.55383469 60.78478091 465.78572615 57.0546875 468.95703125 C53.33379332 472.13831524 50.10524982 475.65788817 46.9375 479.375 C43.89640433 482.89313029 40.62040594 485.91268076 37.0859375 488.92578125 C33.96725705 491.59988385 31.13003131 494.45447607 28.484375 497.59765625 C22.10898447 505.11509508 14.80074005 511.76108789 4.6484375 512.90625 C-4.4141971 513.25796787 -11.44826316 512.46085027 -18.75 506.5 C-25.2958129 499.73719883 -29.21483437 492.97622814 -29.13869667 483.43665791 C-29.14425538 482.6378064 -29.14981409 481.83895489 -29.15554124 481.01589575 C-29.17052085 478.33428391 -29.16414515 475.65315204 -29.15786743 472.97151184 C-29.16418764 471.03138765 -29.17180229 469.09126732 -29.18060148 467.15115279 C-29.20091998 461.81577044 -29.2024281 456.48052238 -29.20081019 451.14510763 C-29.2022534 445.39236689 -29.22083468 439.63967741 -29.23706055 433.88696289 C-29.26919393 421.30640053 -29.27899559 408.72587913 -29.28470278 396.14528108 C-29.28845242 388.29062685 -29.29725889 380.43598359 -29.30720139 372.58133507 C-29.3341427 350.83583261 -29.35677794 329.09034324 -29.35907936 307.34482288 C-29.35915784 306.6493692 -29.35923633 305.95391552 -29.35931719 305.23738748 C-29.35970743 301.71256532 -29.360058 298.18774315 -29.36040695 294.66292099 C-29.36055117 293.24818105 -29.36069547 291.83344111 -29.36083984 290.41870117 C-29.3609065 289.71776593 -29.36097315 289.01683069 -29.36104183 288.29465499 C-29.36333422 266.27407634 -29.39293073 244.25367444 -29.44287109 222.2331543 C-29.49897751 197.49057531 -29.53122649 172.74812006 -29.53063047 148.00547332 C-29.53088321 134.90586392 -29.54214371 121.80647352 -29.58180618 108.70691872 C-29.61540561 97.55301078 -29.62489701 86.39940709 -29.60304923 75.2454643 C-29.5926066 69.5548662 -29.59344932 63.86486412 -29.62481308 58.17432976 C-29.65325901 52.96222776 -29.64924703 47.75118431 -29.6196541 42.53909799 C-29.61462212 40.65617995 -29.62135892 38.77318489 -29.64121862 36.89036486 C-29.74766025 26.09576446 -29.44320901 17.90938562 -21.75 9.5 C-19.21048697 7.1905864 -16.71529178 5.22929165 -13.75 3.5 C-12.83863281 2.96375 -11.92726563 2.4275 -10.98828125 1.875 C-7.25173564 0.28843298 -3.99693189 -0.03682266 0 0 Z M29.25 100.5 C29.25 203.46 29.25 306.42 29.25 412.5 C34.90432424 407.75435538 34.90432424 407.75435538 39.6875 402.5625 C42.6745091 399.04521288 45.90260117 396.06728902 49.41015625 393.078125 C53.13886792 389.87982454 56.38343676 386.35538727 59.5625 382.625 C62.60359567 379.10686971 65.87959406 376.08731924 69.4140625 373.07421875 C73.31770709 369.72705115 76.69491417 365.99608896 80.0625 362.125 C83.30134117 358.44616531 86.71521909 355.21427385 90.4453125 352.04296875 C94.16620668 348.86168476 97.39475018 345.34211183 100.5625 341.625 C103.60359567 338.10686971 106.87959406 335.08731924 110.4140625 332.07421875 C114.31770709 328.72705115 117.69491417 324.99608896 121.0625 321.125 C124.30134117 317.44616531 127.71521909 314.21427385 131.4453125 311.04296875 C135.16620668 307.86168476 138.39475018 304.34211183 141.5625 300.625 C144.60359567 297.10686971 147.87959406 294.08731924 151.4140625 291.07421875 C155.31770709 287.72705115 158.69491417 283.99608896 162.0625 280.125 C165.30010604 276.44756823 168.71216864 273.2163635 172.44140625 270.046875 C177.20722484 265.97071051 181.23247239 261.29066008 185.25 256.5 C180.46457401 250.79366729 175.50134726 245.5808037 169.875 240.6875 C166.19476275 237.44742402 162.96218185 234.03173208 159.7890625 230.30078125 C156.45930853 226.40480008 152.73282995 223.04355139 148.875 219.6875 C145.19616531 216.44865883 141.96427385 213.03478091 138.79296875 209.3046875 C135.61168476 205.58379332 132.09211183 202.35524982 128.375 199.1875 C124.85827306 196.14761739 121.83946437 192.8734199 118.828125 189.33984375 C115.62982454 185.61113208 112.10538727 182.36656324 108.375 179.1875 C104.85686971 176.14640433 101.83731924 172.87040594 98.82421875 169.3359375 C95.47705115 165.43229291 91.74608896 162.05508583 87.875 158.6875 C84.19476275 155.44742402 80.96218185 152.03173208 77.7890625 148.30078125 C74.45930853 144.40480008 70.73282995 141.04355139 66.875 137.6875 C63.19616531 134.44865883 59.96427385 131.03478091 56.79296875 127.3046875 C53.61168476 123.58379332 50.09211183 120.35524982 46.375 117.1875 C42.92125337 114.20766973 39.97039795 111.02089293 37.0859375 107.4921875 C34.71359572 104.91794429 31.93929392 102.74107827 29.25 100.5 Z M422.1875 102.4375 C419.83072705 104.82813463 417.63818023 107.3407521 415.4375 109.875 C412.19865883 113.55383469 408.78478091 116.78572615 405.0546875 119.95703125 C401.33379332 123.13831524 398.10524982 126.65788817 394.9375 130.375 C391.89640433 133.89313029 388.62040594 136.91268076 385.0859375 139.92578125 C381.18229291 143.27294885 377.80508583 147.00391104 374.4375 150.875 C371.19865883 154.55383469 367.78478091 157.78572615 364.0546875 160.95703125 C360.33379332 164.13831524 357.10524982 167.65788817 353.9375 171.375 C350.89640433 174.89313029 347.62040594 177.91268076 344.0859375 180.92578125 C340.18229291 184.27294885 336.80508583 188.00391104 333.4375 191.875 C330.19865883 195.55383469 326.78478091 198.78572615 323.0546875 201.95703125 C319.33379332 205.13831524 316.10524982 208.65788817 312.9375 212.375 C309.89640433 215.89313029 306.62040594 218.91268076 303.0859375 221.92578125 C299.18229291 225.27294885 295.80508583 229.00391104 292.4375 232.875 C289.19865883 236.55383469 285.78478091 239.78572615 282.0546875 242.95703125 C278.33379332 246.13831524 275.10524982 249.65788817 271.9375 253.375 C268.89640433 256.89313029 265.62040594 259.91268076 262.0859375 262.92578125 C258.18229291 266.27294885 254.80508583 270.00391104 251.4375 273.875 C248.19865883 277.55383469 244.78478091 280.78572615 241.0546875 283.95703125 C237.33379332 287.13831524 234.10524982 290.65788817 230.9375 294.375 C227.89640433 297.89313029 224.62040594 300.91268076 221.0859375 303.92578125 C217.18229291 307.27294885 213.80508583 311.00391104 210.4375 314.875 C207.19865883 318.55383469 203.78478091 321.78572615 200.0546875 324.95703125 C196.33379332 328.13831524 193.10524982 331.65788817 189.9375 335.375 C186.89761739 338.89172694 183.6234199 341.91053563 180.08984375 344.921875 C176.36113208 348.12017546 173.11656324 351.64461273 169.9375 355.375 C166.88382753 358.92422458 163.5848795 361.91656119 159.94921875 364.859375 C158.13489702 366.61113391 157.23679722 368.19580345 156.25 370.5 C159.40256523 374.51235574 162.65270413 377.81249829 166.56640625 381.078125 C170.43717381 384.34717231 173.74613115 388.06182103 177.0625 391.875 C180.30134117 395.55383469 183.71521909 398.78572615 187.4453125 401.95703125 C191.16620668 405.13831524 194.39475018 408.65788817 197.5625 412.375 C200.60359567 415.89313029 203.87959406 418.91268076 207.4140625 421.92578125 C212.16810489 426.00211973 216.20687666 430.68164302 220.28515625 435.4140625 C222.1475236 437.39120796 224.02901089 438.94679158 226.25 440.5 C229.16196874 439.18396828 231.2242345 437.77175509 233.47045898 435.5065918 C234.07466171 434.90223801 234.67886444 434.29788422 235.30137634 433.67521667 C235.94313309 433.02313736 236.58488983 432.37105804 237.24609375 431.69921875 C237.91665298 431.02582962 238.58721222 430.35244049 239.27809143 429.65864563 C241.41930759 427.50625258 243.55347692 425.34702262 245.6875 423.1875 C247.11998017 421.74498324 248.55291797 420.30292078 249.98632812 418.86132812 C252.62712022 416.20422501 255.26522636 413.54451765 257.90014648 410.8815918 C266.37931914 402.31926221 266.37931914 402.31926221 270.125 399.1875 C273.64313029 396.14640433 276.66268076 392.87040594 279.67578125 389.3359375 C283.04168957 385.41043648 286.79754752 382.01490851 290.6875 378.625 C294.08007042 375.63751262 297.06070995 372.55294585 299.9375 369.07421875 C303.33073221 365.00435988 307.29474006 361.56723477 311.25 358.0625 C314.05528299 355.56060317 316.71404677 353.12493039 319.0625 350.1875 C321.25 347.5 321.25 347.5 323.6875 345.5625 C325.89145325 343.78858641 327.45992157 342.15633489 329.25 340 C331.67665389 337.07684404 334.27200454 334.86712459 337.25 332.5 C338.075 331.51 338.9 330.52 339.75 329.5 C342.08518237 326.69778116 344.41900965 324.76479228 347.25 322.5 C348.075 321.51 348.9 320.52 349.75 319.5 C352.08518237 316.69778116 354.41900965 314.76479228 357.25 312.5 C358.054375 311.530625 358.85875 310.56125 359.6875 309.5625 C362.30199465 306.43786005 365.12225464 304.09536317 368.25 301.5 C368.91 300.675 369.57 299.85 370.25 299 C372.61043197 296.04946004 375.35151737 293.91540219 378.25 291.5 C379.2090625 290.2934375 379.2090625 290.2934375 380.1875 289.0625 C382.41072838 286.30030717 384.82712683 284.22031242 387.53515625 281.953125 C391.63183909 278.48167622 395.134346 274.50990334 398.6875 270.5 C401.18939683 267.69471701 403.62506961 265.03595323 406.5625 262.6875 C409.293112 260.6245089 409.293112 260.6245089 411.1875 258.0625 C413.36352159 255.35895802 415.69374223 253.31160727 418.37109375 251.125 C418.99113281 250.58875 419.61117188 250.0525 420.25 249.5 C421.10204514 248.9258284 421.95409027 248.3516568 422.83195496 247.76008606 C426.41407527 244.10615715 425.84478815 239.58149963 425.87210083 234.73947144 C425.85440758 233.39751577 425.83623357 232.05556636 425.81762695 230.71362305 C425.81621591 229.29418488 425.81700957 227.87474306 425.81983948 226.45530701 C425.82127288 222.60829755 425.79189647 218.7620691 425.75696969 214.915241 C425.72569296 210.89273788 425.72277443 206.87021643 425.71684265 202.84761047 C425.70130801 195.23317151 425.66028491 187.6190919 425.6100952 180.00481111 C425.55418975 171.33501977 425.52671225 162.66521118 425.50161803 153.99528444 C425.44936854 136.1633193 425.36143383 118.33168855 425.25 100.5 C423.89984004 100.38588742 423.89984004 100.38588742 422.1875 102.4375 Z M422.125 329.5 C419.95144061 331.70469921 417.94243649 334.01679094 415.9375 336.375 C412.89640433 339.89313029 409.62040594 342.91268076 406.0859375 345.92578125 C402.18229291 349.27294885 398.80508583 353.00391104 395.4375 356.875 C392.13606639 360.64806698 388.63779882 363.87202171 384.71875 366.9921875 C382.90111646 368.5073409 382.90111646 368.5073409 383.25 371.5 C384.77984558 373.1333031 384.77984558 373.1333031 386.8125 374.6875 C390.48606838 377.75746085 393.57508041 381.02683589 396.67578125 384.6640625 C400.02294885 388.56770709 403.75391104 391.94491417 407.625 395.3125 C411.24110868 398.49083765 414.41026281 401.81298407 417.44921875 405.54296875 C419.80839361 408.10684424 422.57341701 410.26951417 425.25 412.5 C425.25 384.45 425.25 356.4 425.25 327.5 C423.8850076 327.38577255 423.8850076 327.38577255 422.125 329.5 Z " fill="#06B5D5" transform="translate(28.75,-0.5)"/>
</svg>
